<?xml version="1.0" encoding="UTF-8"?>
<svg width="193px" height="20px" viewBox="0 0 193 20" version="1.1" xmlns="http://www.w3.org/2000/svg" xmlns:xlink="http://www.w3.org/1999/xlink">
    <!-- Generator: Sketch 53.2 (72643) - https://sketchapp.com -->
    <title>Awakenings</title>
    <g stroke="none" stroke-width="1" fill="none" fill-rule="evenodd">
        <g id="logo" transform="translate(-26.000000, -26.000000)" fill="#FFFFFF">
            <g transform="translate(26.000000, 26.000000)">
                <path d="M174.815765,12.5319726 L186.992334,12.5319726 L185.005656,14.4533367 L174.815765,14.4533367 L174.815765,20 L188.681316,20 C189.119976,19.5683111 192.549111,16.1953059 193,15.7426982 L193,7.28039175 L174.815765,7.28039175 L174.815765,12.5319726 Z M174.815765,5.36885311 L193,5.36885311 L193,0 L174.815765,0 L174.815765,5.36885311 Z M155.703039,20 L172.887016,20 L172.887016,7.28039175 L167.273597,7.28039175 L167.273597,14.4533367 L162.313499,14.4533367 L162.313499,5.36885311 L172.887016,5.36885311 L172.887016,0 L155.703039,0 L155.703039,20 Z M135.589412,20 L142.192792,20 L142.192792,5.36885311 L147.161901,5.36885311 L147.161901,20 L153.781694,20 L153.781694,0 L135.589412,0 L135.589412,20 Z M107.083333,20 L113.705379,20 L113.705379,7.28039175 L107.083333,7.28039175 L107.083333,20 Z M106.946232,5.36885311 L109.985628,5.36885311 L118.523226,5.36885311 L118.523226,20 L125.143985,20 L125.143985,0 L106.946232,0 L106.946232,5.36885311 Z M87.8473459,20 L105.031001,20 L105.031001,14.6644269 C103.654519,14.6650608 94.4558746,14.6688642 94.4558746,14.6688642 L94.4558746,12.7921903 L105.031001,12.7921903 L105.031001,7.28039175 L94.4558746,7.28039175 L94.4558746,5.36885311 L105.031001,5.36885311 L105.031001,0 L87.8473459,0 L87.8473459,20 Z M79.3039542,7.24711177 L74.3544771,7.24711177 L74.3544771,0 L67.7398335,0 L67.7398335,20 L74.3544771,20 L74.3544771,12.7921903 L79.3039542,12.7921903 L79.3039542,20 L85.9305056,20 L85.9305056,12.4498819 C85.5999827,12.1205686 83.7713248,10.3031648 83.7523366,10.2812951 L83.6361547,10.1684601 L83.7523366,10.0587946 C83.7742213,10.036608 85.5986953,8.2505824 85.9305056,7.92253689 L85.9305056,0 L79.3039542,0 L79.3039542,7.24711177 Z M20.1059032,12.9944058 L26.7826607,12.9944058 L26.7826607,0.000950856563 L20.1059032,0.000950856563 L20.1059032,12.9944058 Z M39.1133888,14.8235369 L36.2217149,14.8235369 C36.2217149,14.6866135 36.2310481,1.6367411 36.2310481,0.000950856563 L29.5336933,0.000950856563 L29.5256475,14.8235369 L29.3618342,14.8235369 C29.282985,14.8235369 21.3970992,14.8298759 20.1059032,14.8235369 L20.1059032,19.9977813 L41.7064012,19.9977813 L45.7199865,16.4434795 L45.7270669,0.000950856563 L39.1195036,0.000950856563 L39.1133888,14.8235369 Z M6.05787166,7.44964422 L11.5814997,7.44964422 L11.5814997,5.56948384 L7.97760839,5.56948384 L6.05787166,7.44964422 Z M4.91568463,0.00380342625 L18.1913158,0.00380342625 L18.1913158,19.9965135 L11.5814997,19.9965135 L11.5814997,12.9912363 L6.61399992,12.9912363 L6.61399992,19.9965135 L0,19.9965135 L0,4.86901951 C0.477922723,4.39264037 4.41587723,0.495713222 4.91568463,0.00380342625 L4.91568463,0.00380342625 Z M53.6992041,7.4537646 L59.2144645,7.4537646 L59.2144645,5.57360422 L55.6199063,5.57360422 L53.6992041,7.4537646 Z M52.5570171,0 L65.8262116,0 L65.8262116,20 L59.2144645,20 L59.2144645,12.9966245 L54.2543668,12.9966245 L54.2543668,20 L47.6448726,20 L47.6448726,4.87599246 C47.8592137,4.6576124 48.9161149,3.60976847 52.375503,0.181296651 L52.5570171,0 Z M127.064043,5.36885311 L133.677721,5.36885311 L133.677721,0 L127.064043,0 L127.064043,5.36885311 Z M127.064043,20 L133.677721,20 L133.677721,7.28039175 L127.064043,7.28039175 L127.064043,20 Z" id="Fill-1"></path>
            </g>
        </g>
    </g>
</svg>